<?xml version="1.0" encoding="UTF-8" standalone="no"?><!DOCTYPE svg PUBLIC "-//W3C//DTD SVG 1.1//EN" "http://www.w3.org/Graphics/SVG/1.1/DTD/svg11.dtd"><svg width="100%" height="100%" viewBox="0 0 313 313" version="1.1" xmlns="http://www.w3.org/2000/svg" xmlns:xlink="http://www.w3.org/1999/xlink" xml:space="preserve" xmlns:serif="http://www.serif.com/" style="fill-rule:evenodd;clip-rule:evenodd;stroke-linecap:round;stroke-linejoin:round;stroke-miterlimit:1.5;"><path d="M54.208,91.441l0.016,25.347l63.67,0.361c3.751,5.164 3.482,11.024 0,17.441l-30.813,0l0,-5.738l-33.133,-0.048l0.006,4.619l0,28.581l8.262,0l0,27.06l24.913,0l0,-30.015l22.344,0.022l29.351,30.295l16.261,0l-28.199,-31.087c9.977,-2.827 17.064,-9.37 19.708,-21.624l0,-21.491c-2.507,-13.899 -11.031,-22.109 -26.221,-24.016l-11.486,0l-19.727,18.846l-5.077,0l17.673,-18.508l-47.548,-0.045Z" style="fill:none;stroke:#000;stroke-width:1.04px;"/><path d="M189.545,149.797l0.017,36.458l2.73,2.231c-17.562,-0.093 -27.55,-8.426 -30.702,-24.196l0,-48.345c3.512,-17.089 13.958,-23.992 29.316,-23.68l-1.275,2.625l0,35.169l35.73,-32.328l-14.854,-6.583l48.045,0l-3.026,13.03l-38.212,36.079l37.312,34.856l3.898,14.253l-40.501,0l3.837,-5.61l5.796,0l-38.111,-33.959Z" style="fill:none;stroke:#000;stroke-width:1.04px;"/></svg>